<svg width="20" height="20" viewBox="0 0 20 20" fill="none" xmlns="http://www.w3.org/2000/svg">
<g id="Navbar Icon" opacity="0.8">
<g id="Vector">
<path fill-rule="evenodd" clip-rule="evenodd" d="M2.6626 10.9376C2.6626 10.5096 3.00958 10.1626 3.4376 10.1626H7.8126C8.24062 10.1626 8.5876 10.5096 8.5876 10.9376C8.5876 11.3656 8.24062 11.7126 7.8126 11.7126H4.2126V16.5626C4.2126 16.9906 3.86562 17.3376 3.4376 17.3376C3.00958 17.3376 2.6626 16.9906 2.6626 16.5626V10.9376Z" fill="white"/>
<path fill-rule="evenodd" clip-rule="evenodd" d="M1.4126 16.5626C1.4126 16.1346 1.75958 15.7876 2.1876 15.7876H17.8126C18.2406 15.7876 18.5876 16.1346 18.5876 16.5626C18.5876 16.9906 18.2406 17.3376 17.8126 17.3376H2.1876C1.75958 17.3376 1.4126 16.9906 1.4126 16.5626Z" fill="white"/>
<path fill-rule="evenodd" clip-rule="evenodd" d="M7.0376 7.1876C7.0376 6.75958 7.38458 6.4126 7.8126 6.4126H12.1876C12.6156 6.4126 12.9626 6.75958 12.9626 7.1876C12.9626 7.61562 12.6156 7.9626 12.1876 7.9626H8.5876V16.5626C8.5876 16.9906 8.24062 17.3376 7.8126 17.3376C7.38458 17.3376 7.0376 16.9906 7.0376 16.5626V7.1876Z" fill="white"/>
<path fill-rule="evenodd" clip-rule="evenodd" d="M11.4126 3.4376C11.4126 3.00958 11.7596 2.6626 12.1876 2.6626H16.5626C16.9906 2.6626 17.3376 3.00958 17.3376 3.4376V16.5626C17.3376 16.9906 16.9906 17.3376 16.5626 17.3376H12.1876C11.7596 17.3376 11.4126 16.9906 11.4126 16.5626V3.4376ZM12.9626 4.2126V15.7876H15.7876V4.2126H12.9626Z" fill="white"/>
</g>
</g>
</svg>
