<svg width="14" height="14" viewBox="0 0 14 14" fill="none" xmlns="http://www.w3.org/2000/svg">
<g id="Outlined / Info" clip-path="url(#clip0_0_5817)">
<g id="Vector">
<path fill-rule="evenodd" clip-rule="evenodd" d="M7.0002 1.63353C4.03627 1.63353 1.63353 4.03627 1.63353 7.0002C1.63353 9.96412 4.03627 12.3669 7.0002 12.3669C9.96412 12.3669 12.3669 9.96412 12.3669 7.0002C12.3669 4.03627 9.96412 1.63353 7.0002 1.63353ZM0.700195 7.0002C0.700195 3.5208 3.5208 0.700195 7.0002 0.700195C10.4796 0.700195 13.3002 3.5208 13.3002 7.0002C13.3002 10.4796 10.4796 13.3002 7.0002 13.3002C3.5208 13.3002 0.700195 10.4796 0.700195 7.0002Z" fill="#4D4D4D"/>
<path fill-rule="evenodd" clip-rule="evenodd" d="M7.00019 6.62382C7.25793 6.62382 7.46686 6.83276 7.46686 7.09049L7.46687 9.44604C7.46687 9.70377 7.25794 9.9127 7.00021 9.9127C6.74247 9.9127 6.53354 9.70377 6.53354 9.44604L6.53353 7.09049C6.53353 6.83276 6.74246 6.62382 7.00019 6.62382Z" fill="#4D4D4D"/>
<path fill-rule="evenodd" clip-rule="evenodd" d="M7.52801 4.75852C7.52801 5.05002 7.29171 5.28633 7.00021 5.28633C6.70871 5.28633 6.4724 5.05002 6.4724 4.75852C6.4724 4.46702 6.70871 4.23072 7.00021 4.23072C7.29171 4.23072 7.52801 4.46702 7.52801 4.75852Z" fill="#4D4D4D"/>
</g>
</g>
<defs>
<clipPath id="clip0_0_5817">
<rect width="14" height="14" fill="white"/>
</clipPath>
</defs>
</svg>
