<svg width="20" height="20" viewBox="0 0 20 20" fill="none" xmlns="http://www.w3.org/2000/svg">
<g id="Navbar Icon" opacity="0.8">
<g id="Vector">
<path fill-rule="evenodd" clip-rule="evenodd" d="M14.2972 1.98737C14.1119 1.19626 13.4057 0.625 12.5804 0.625H7.41988L7.28896 0.629913L7.15288 0.645423L7.01906 0.671421C6.22795 0.856753 5.65669 1.56287 5.65669 2.38819V2.60323H4.19453L4.0445 2.60717C2.70315 2.67794 1.61426 3.69145 1.61426 4.96848V17.0098L1.6187 17.1505C1.69821 18.4071 2.83563 19.375 4.19453 19.375H15.8058L15.9558 19.3711C17.2972 19.3003 18.3861 18.2868 18.3861 17.0098V4.96848L18.3816 4.82771C18.3021 3.57113 17.1647 2.60323 15.8058 2.60323H14.3436V2.38819L14.3387 2.25726L14.3232 2.12119L14.2972 1.98737ZM14.3436 3.89336V4.10837C14.3436 4.93369 13.7724 5.63981 12.9813 5.82514L12.8474 5.85114L12.7114 5.86665L12.5804 5.87156H7.41988C6.59457 5.87156 5.88845 5.3003 5.70311 4.5092L5.67712 4.37537L5.66161 4.2393L5.65669 4.10837V3.89336H4.19453C3.50904 3.89336 2.97107 4.33572 2.91015 4.86776L2.9044 4.96848V17.0098C2.9044 17.5516 3.40204 18.0259 4.06781 18.0798L4.19453 18.0849H15.8058C16.4913 18.0849 17.0292 17.6425 17.0902 17.1105L17.0959 17.0098V4.96848C17.0959 4.42661 16.5983 3.95238 15.9325 3.89846L15.8058 3.89336H14.3436ZM7.67764 1.61411H12.3227C12.7697 1.61411 13.1592 1.90084 13.3005 2.31864L13.3305 2.42573L13.3487 2.53612L13.3548 2.64625L13.3542 3.86708L13.3452 3.98931L13.324 4.10085L13.287 4.21899C13.1783 4.50363 12.9484 4.72443 12.6589 4.8251L12.5477 4.85711L12.4314 4.87652L12.3227 4.88246L7.66091 4.88191L7.53868 4.87291L7.42713 4.85165L7.309 4.81468C7.02436 4.70593 6.80356 4.47604 6.70288 4.18656L6.67087 4.07533L6.65146 3.95905L6.64553 3.85031L6.64607 2.62948L6.65508 2.50725L6.67633 2.39571L6.7133 2.27757C6.82206 1.99293 7.05194 1.77213 7.34142 1.67146L7.45265 1.63945L7.56893 1.62004L7.67764 1.61411Z" fill="white"/>
<path d="M5.46309 10.5959C5.93831 10.5959 6.32356 10.2107 6.32356 9.73547C6.32356 9.26025 5.93831 8.875 5.46309 8.875C4.98786 8.875 4.60262 9.26025 4.60262 9.73547C4.60262 10.2107 4.98786 10.5959 5.46309 10.5959Z" fill="white"/>
<path d="M8.04453 8.9485C7.6125 8.9485 7.26228 9.29872 7.26228 9.73075C7.26228 10.1628 7.6125 10.513 8.04453 10.513H14.6154C15.0474 10.513 15.3976 10.1628 15.3976 9.73075C15.3976 9.29872 15.0474 8.9485 14.6154 8.9485H8.04453Z" fill="white"/>
<path d="M7.26231 14.1522C7.26231 13.7202 7.61254 13.3699 8.04456 13.3699H14.6154C15.0474 13.3699 15.3977 13.7202 15.3977 14.1522C15.3977 14.5842 15.0474 14.9344 14.6154 14.9344H8.04456C7.61254 14.9344 7.26231 14.5842 7.26231 14.1522Z" fill="white"/>
<path d="M5.46312 15.0174C5.93834 15.0174 6.32359 14.6321 6.32359 14.1569C6.32359 13.6817 5.93834 13.2964 5.46312 13.2964C4.98789 13.2964 4.60265 13.6817 4.60265 14.1569C4.60265 14.6321 4.98789 15.0174 5.46312 15.0174Z" fill="white"/>
</g>
</g>
</svg>
