<svg width="20" height="20" viewBox="0 0 20 20" fill="none" xmlns="http://www.w3.org/2000/svg">
<g id="Navbar Icon" opacity="0.8">
<path id="Vector" d="M17.0807 10.8332C17.7711 10.8332 18.3307 11.3928 18.3307 12.0832V17.0832C18.3307 17.7735 17.7711 18.3332 17.0807 18.3332H12.0807C11.3904 18.3332 10.8307 17.7735 10.8307 17.0832V12.0832C10.8307 11.3928 11.3904 10.8332 12.0807 10.8332H17.0807ZM7.9165 10.8332C8.60686 10.8332 9.1665 11.3928 9.1665 12.0832V17.0832C9.1665 17.7735 8.60686 18.3332 7.9165 18.3332H2.9165C2.22615 18.3332 1.6665 17.7735 1.6665 17.0832V12.0832C1.6665 11.3928 2.22615 10.8332 2.9165 10.8332H7.9165ZM16.914 12.2498H12.2473V16.9165H16.914V12.2498ZM7.74984 12.2498H3.08317V16.9165H7.74984V12.2498ZM7.9165 1.6665C8.60686 1.6665 9.1665 2.22615 9.1665 2.9165V7.9165C9.1665 8.60686 8.60686 9.1665 7.9165 9.1665H2.9165C2.22615 9.1665 1.6665 8.60686 1.6665 7.9165V2.9165C1.6665 2.22615 2.22615 1.6665 2.9165 1.6665H7.9165ZM17.0807 1.6665C17.7711 1.6665 18.3307 2.22615 18.3307 2.9165V7.9165C18.3307 8.60686 17.7711 9.1665 17.0807 9.1665H12.0807C11.3904 9.1665 10.8307 8.60686 10.8307 7.9165V2.9165C10.8307 2.22615 11.3904 1.6665 12.0807 1.6665H17.0807ZM7.74984 3.08317H3.08317V7.74984H7.74984V3.08317ZM16.914 3.08317H12.2473V7.74984H16.914V3.08317Z" fill="white"/>
</g>
</svg>
