<svg width="16" height="16" viewBox="0 0 16 16" fill="none" xmlns="http://www.w3.org/2000/svg">
<g id="Outlined / Sort">
<g id="Vector">
<path fill-rule="evenodd" clip-rule="evenodd" d="M1.62301 9.93375C1.83129 9.72547 2.16897 9.72547 2.37725 9.93375L4.641 12.1975L6.90474 9.93375C7.11302 9.72547 7.45071 9.72547 7.65899 9.93375C7.86727 10.142 7.86727 10.4797 7.65899 10.688L5.01812 13.3289C4.80984 13.5371 4.47215 13.5371 4.26387 13.3289L1.62301 10.688C1.41473 10.4797 1.41473 10.142 1.62301 9.93375Z" fill="#4D4D4D"/>
<path fill-rule="evenodd" clip-rule="evenodd" d="M4.64095 2.51515C4.9355 2.51515 5.17428 2.75393 5.17428 3.04849L5.17428 12.9517C5.17428 13.2463 4.9355 13.4851 4.64095 13.4851C4.3464 13.4851 4.10762 13.2463 4.10762 12.9517L4.10762 3.04849C4.10762 2.75393 4.3464 2.51515 4.64095 2.51515Z" fill="#4D4D4D"/>
<path fill-rule="evenodd" clip-rule="evenodd" d="M14.3772 6.06646C14.169 6.27474 13.8313 6.27474 13.623 6.06646L11.3592 3.80272L9.0955 6.06646C8.88722 6.27474 8.54953 6.27474 8.34126 6.06646C8.13298 5.85818 8.13298 5.52049 8.34126 5.31221L10.9821 2.67135C11.1904 2.46307 11.5281 2.46307 11.7364 2.67135L14.3772 5.31221C14.5855 5.52049 14.5855 5.85818 14.3772 6.06646Z" fill="#4D4D4D"/>
<path fill-rule="evenodd" clip-rule="evenodd" d="M11.3593 13.4851C11.0647 13.4851 10.826 13.2463 10.826 12.9517L10.826 3.04847C10.826 2.75392 11.0647 2.51514 11.3593 2.51514C11.6538 2.51514 11.8926 2.75392 11.8926 3.04847L11.8926 12.9517C11.8926 13.2463 11.6538 13.4851 11.3593 13.4851Z" fill="#4D4D4D"/>
</g>
</g>
</svg>
